<svg width="402" height="111" viewBox="0 0 402 111" fill="none" xmlns="http://www.w3.org/2000/svg">
<g filter="url(#filter0_d)">
<path d="M41.1562 0.296875C47.3438 0.296875 52.9375 1.29687 57.9375 3.29688C62.9688 5.26562 67.2656 8.01563 70.8281 11.5469C74.3906 15.0781 77.1406 19.2812 79.0781 24.1562C81.0156 29.0312 81.9844 34.3594 81.9844 40.1406C81.9844 43.8594 81.625 47.4531 80.9062 50.9219C80.1875 54.3906 79.1562 57.6562 77.8125 60.7188C76.4688 63.7812 74.8125 66.5781 72.8438 69.1094C70.9062 71.6406 68.7031 73.8281 66.2344 75.6719C63.7969 77.4844 61.1094 78.8906 58.1719 79.8906C55.2656 80.8906 52.1562 81.3906 48.8438 81.3906C45.4688 81.3906 42.0625 81.0781 38.625 80.4531C35.1875 79.8281 31.7812 79.1562 28.4062 78.4375C27.25 79.0938 26.0625 79.6562 24.8438 80.125C23.625 80.625 22.4062 81.0312 21.1875 81.3438C19.9688 81.6875 18.7656 81.9375 17.5781 82.0938C16.4219 82.2812 15.3281 82.375 14.2969 82.375C11.1719 82.375 8.79688 82.0156 7.17188 81.2969C5.51562 80.5781 4.6875 79.5 4.6875 78.0625C4.6875 77.2188 4.92188 76.4688 5.39062 75.8125C5.82812 75.1562 6.57812 74.6094 7.64062 74.1719C8.70312 73.7031 10.0938 73.3594 11.8125 73.1406C13.5 72.8906 15.6094 72.7656 18.1406 72.7656C20.1094 72.7656 22.0469 72.875 23.9531 73.0938C25.8594 73.2812 27.75 73.5156 29.625 73.7969L30.8906 72.4844C31.5469 71.7031 32.0469 70.7188 32.3906 69.5312C32.7344 68.3125 32.9844 66.75 33.1406 64.8438C33.2969 62.9375 33.3906 60.6094 33.4219 57.8594C33.4531 55.0781 33.4688 51.7188 33.4688 47.7812C33.4688 43.9688 33.4844 40.7188 33.5156 38.0312C33.5781 35.3125 33.7031 32.9844 33.8906 31.0469C34.0781 29.1094 34.3594 27.4688 34.7344 26.125C35.1094 24.75 35.6094 23.5 36.2344 22.375C36.8906 21.2188 37.7031 20.0938 38.6719 19C39.6406 17.875 40.7969 16.5938 42.1406 15.1562L44.5312 17.2656C43.8438 17.9219 43.2969 18.7344 42.8906 19.7031C42.5156 20.6406 42.2344 21.7656 42.0469 23.0781C41.8594 24.3594 41.7344 25.8281 41.6719 27.4844C41.6406 29.1094 41.625 30.9531 41.625 33.0156V59.4062C41.625 61.4375 41.4062 63.2188 40.9688 64.75C40.5312 66.25 39.9375 67.5938 39.1875 68.7812C38.4688 69.9688 37.6406 71.0312 36.7031 71.9688C35.7656 72.9062 34.7969 73.7812 33.7969 74.5938C35.6406 74.9688 37.4375 75.3438 39.1875 75.7188C40.9375 76.0938 42.625 76.4375 44.25 76.75C45.9062 77.0625 47.4844 77.3281 48.9844 77.5469C50.5156 77.7344 51.9688 77.8281 53.3438 77.8281C55.9062 77.8281 58.1875 77.2656 60.1875 76.1406C62.1875 75.0156 63.9219 73.4844 65.3906 71.5469C66.8594 69.5781 68.0938 67.2812 69.0938 64.6562C70.125 62 70.9531 59.1562 71.5781 56.125C72.2031 53.0938 72.6406 49.9219 72.8906 46.6094C73.1719 43.2969 73.3125 40.0156 73.3125 36.7656C73.3125 31.6094 72.6562 26.9844 71.3438 22.8906C70.0312 18.7969 68.0781 15.3281 65.4844 12.4844C62.9219 9.60938 59.7188 7.42188 55.875 5.92188C52.0625 4.39062 47.6406 3.625 42.6094 3.625C38.9844 3.625 35.8281 3.92187 33.1406 4.51562C30.4531 5.07812 28.1406 5.84375 26.2031 6.8125C24.2969 7.75 22.7344 8.82812 21.5156 10.0469C20.2969 11.2656 19.3281 12.5312 18.6094 13.8438C17.9219 15.125 17.4375 16.4062 17.1562 17.6875C16.9062 18.9688 16.7812 20.1406 16.7812 21.2031C16.7812 22.4531 16.875 23.6875 17.0625 24.9062C17.2812 26.0938 17.6875 27.1562 18.2812 28.0938C18.9062 29.0312 19.7812 29.7812 20.9062 30.3438C22.0312 30.9062 23.5312 31.1875 25.4062 31.1875C26.0312 31.1875 26.5469 31.1562 26.9531 31.0938C27.3594 31 27.7031 30.8906 27.9844 30.7656C28.2969 30.6406 28.5625 30.5 28.7812 30.3438L29.3438 33.1094C28.875 33.4531 28.0781 33.75 26.9531 34C25.8594 34.25 24.6719 34.375 23.3906 34.375C21.5156 34.375 19.7656 34.0469 18.1406 33.3906C16.5469 32.7344 15.1562 31.8438 13.9688 30.7188C12.7812 29.5625 11.8594 28.2344 11.2031 26.7344C10.5156 25.2344 10.1719 23.6406 10.1719 21.9531C10.1719 19.0469 10.9375 16.2969 12.4688 13.7031C14 11.0781 16.1406 8.78125 18.8906 6.8125C21.6406 4.8125 24.9062 3.23438 28.6875 2.07812C32.5 0.890625 36.6562 0.296875 41.1562 0.296875ZM12.375 76.1406C11.875 76.1406 11.3438 76.1562 10.7812 76.1875C10.2188 76.2188 9.70312 76.2969 9.23438 76.4219C8.73438 76.5469 8.32812 76.7344 8.01562 76.9844C7.70312 77.2344 7.54688 77.5938 7.54688 78.0625C7.54688 78.6875 8.0625 79.1562 9.09375 79.4688C10.125 79.7812 11.8594 79.9375 14.2969 79.9375C16.1719 79.9375 17.9531 79.7344 19.6406 79.3281C21.3594 78.9219 22.9688 78.3281 24.4688 77.5469C22.4062 77.1719 20.3594 76.8438 18.3281 76.5625C16.2969 76.2812 14.3125 76.1406 12.375 76.1406ZM107.062 68.8281C106.906 69.0781 106.672 69.5156 106.359 70.1406C106.078 70.7344 105.703 71.4062 105.234 72.1562C104.797 72.9062 104.266 73.6875 103.641 74.5C103.047 75.3125 102.359 76.0469 101.578 76.7031C100.797 77.3594 99.9219 77.9062 98.9531 78.3438C98.0156 78.7812 96.9688 79 95.8125 79C94.9062 79 93.9688 78.8125 93 78.4375C92.0312 78.0625 91.125 77.375 90.2812 76.375C89.4688 75.375 88.7969 74.0156 88.2656 72.2969C87.7344 70.5469 87.4688 68.2969 87.4688 65.5469C87.4688 62.9219 87.5625 60.2969 87.75 57.6719C87.9375 55.0156 88.1562 52.5938 88.4062 50.4062C88.6875 48.2188 88.9531 46.3906 89.2031 44.9219C89.4531 43.4531 89.6406 42.5625 89.7656 42.25C89.8906 41.9688 90.1406 41.7188 90.5156 41.5C90.8906 41.2812 91.3125 41.1094 91.7812 40.9844C92.2812 40.8594 92.7812 40.7656 93.2812 40.7031C93.8125 40.6406 94.2656 40.6094 94.6406 40.6094C95.1406 40.6094 95.5312 40.7344 95.8125 40.9844C96.125 41.2344 96.2812 41.6562 96.2812 42.25C96.2812 42.5312 96.2188 43.0938 96.0938 43.9375C96 44.75 95.875 45.75 95.7188 46.9375C95.5625 48.125 95.3906 49.4375 95.2031 50.875C95.0469 52.3125 94.8906 53.7812 94.7344 55.2812C94.5781 56.75 94.4375 58.2188 94.3125 59.6875C94.2188 61.125 94.1719 62.4375 94.1719 63.625C94.1719 67.0312 94.5312 69.5625 95.25 71.2188C96 72.875 97.2188 73.7031 98.9062 73.7031C100.344 73.7031 101.797 72.6562 103.266 70.5625C104.766 68.4688 106.062 65.4219 107.156 61.4219C107.312 59.7344 107.453 57.9375 107.578 56.0312C107.734 54.0938 107.875 52.2656 108 50.5469C108.125 48.7969 108.234 47.2344 108.328 45.8594C108.453 44.4844 108.562 43.5 108.656 42.9062C108.75 42.4688 109 42.1094 109.406 41.8281C109.812 41.5156 110.266 41.2812 110.766 41.125C111.297 40.9375 111.797 40.8125 112.266 40.75C112.766 40.6562 113.141 40.6094 113.391 40.6094C113.922 40.6094 114.281 40.7344 114.469 40.9844C114.688 41.2031 114.797 41.5625 114.797 42.0625C114.797 42.5 114.75 43.3438 114.656 44.5938C114.594 45.8125 114.5 47.25 114.375 48.9062C114.281 50.5312 114.172 52.2812 114.047 54.1562C113.922 56.0312 113.797 57.8438 113.672 59.5938C113.578 61.3125 113.484 62.875 113.391 64.2812C113.328 65.6875 113.297 66.75 113.297 67.4688C113.297 69.5938 113.406 71.2656 113.625 72.4844C113.875 73.7031 114.406 74.3125 115.219 74.3125C115.812 74.3125 116.453 73.9375 117.141 73.1875C117.859 72.4062 118.625 71.3281 119.438 69.9531C120.281 68.5781 121.188 66.9531 122.156 65.0781C123.125 63.1719 124.172 61.0938 125.297 58.8438L125.766 57.8594L127.688 59.3125L127.219 60.2969C125.719 63.2656 124.391 65.9219 123.234 68.2656C122.109 70.5781 121.031 72.5312 120 74.125C118.969 75.7188 117.922 76.9375 116.859 77.7812C115.797 78.5938 114.609 79 113.297 79C112.078 79 111.062 78.7656 110.25 78.2969C109.469 77.8281 108.844 77.1562 108.375 76.2812C107.906 75.4062 107.562 74.3438 107.344 73.0938C107.156 71.8438 107.062 70.4219 107.062 68.8281ZM141.094 43.9375C140.188 43.9375 139.312 44.2656 138.469 44.9219C137.656 45.5469 136.875 46.4219 136.125 47.5469C135.375 48.6406 134.641 49.9375 133.922 51.4375C133.234 52.9062 132.547 54.4844 131.859 56.1719V56.7344C131.766 59.4844 131.672 62.4062 131.578 65.5C131.516 68.5938 131.484 71.9688 131.484 75.625C131.484 76.25 131.266 76.7812 130.828 77.2188C130.422 77.625 129.938 77.9688 129.375 78.25C128.812 78.5 128.234 78.6875 127.641 78.8125C127.047 78.9375 126.562 79 126.188 79C125.719 79 125.281 78.8594 124.875 78.5781C124.469 78.2969 124.266 77.6719 124.266 76.7031C124.266 76.2344 124.312 75.6562 124.406 74.9688C124.5 74.25 124.625 73.4844 124.781 72.6719C124.906 71.8594 125.062 71.0312 125.25 70.1875C125.406 69.3125 125.562 68.5 125.719 67.75C125.719 65.0938 125.719 62.7031 125.719 60.5781C125.688 58.4531 125.672 56.5625 125.672 54.9062C125.672 53.25 125.672 51.7969 125.672 50.5469C125.641 49.2969 125.625 48.2188 125.625 47.3125C125.625 45.8125 125.656 44.7188 125.719 44.0312C125.75 43.3125 125.812 42.8125 125.906 42.5312C126.062 42.0938 126.344 41.75 126.75 41.5C127.188 41.25 127.641 41.0625 128.109 40.9375C128.578 40.7812 129.047 40.6875 129.516 40.6562C129.984 40.625 130.344 40.6094 130.594 40.6094C131.188 40.6094 131.578 40.7812 131.766 41.125C131.953 41.4688 132.047 42 132.047 42.7188C132.047 44.3438 132.047 45.8125 132.047 47.125C132.047 48.4375 132.016 49.75 131.953 51.0625C132.547 49.6562 133.234 48.3281 134.016 47.0781C134.828 45.7969 135.719 44.6875 136.688 43.75C137.656 42.7812 138.672 42.0156 139.734 41.4531C140.828 40.8906 141.953 40.6094 143.109 40.6094C144.516 40.6094 145.672 40.9062 146.578 41.5C147.516 42.0625 148.25 42.8594 148.781 43.8906C149.344 44.9219 149.75 46.1406 150 47.5469C150.281 48.9219 150.469 50.4219 150.562 52.0469C151.438 50.4531 152.375 48.9688 153.375 47.5938C154.406 46.1875 155.484 44.9688 156.609 43.9375C157.766 42.9062 158.969 42.0938 160.219 41.5C161.5 40.9062 162.828 40.6094 164.203 40.6094C166.578 40.6094 168.312 41.3594 169.406 42.8594C170.5 44.3281 171.047 46.3281 171.047 48.8594C171.047 50.4531 170.922 52.2344 170.672 54.2031C170.422 56.1719 170.156 58.1719 169.875 60.2031C169.594 62.2031 169.328 64.1719 169.078 66.1094C168.828 68.0469 168.703 69.8125 168.703 71.4062C168.703 73.3438 169.188 74.3125 170.156 74.3125C170.656 74.3125 171.203 74.0156 171.797 73.4219C172.391 72.7969 173.062 71.8594 173.812 70.6094C174.594 69.3281 175.484 67.7188 176.484 65.7812C177.516 63.8438 178.703 61.5312 180.047 58.8438L180.516 57.8594L182.438 59.3125L181.969 60.2969C180.125 63.9844 178.547 67.0312 177.234 69.4375C175.953 71.8438 174.797 73.7656 173.766 75.2031C172.734 76.6094 171.75 77.5938 170.812 78.1562C169.906 78.7188 168.891 79 167.766 79C167.109 79 166.469 78.9062 165.844 78.7188C165.219 78.5312 164.672 78.2031 164.203 77.7344C163.734 77.2656 163.359 76.6406 163.078 75.8594C162.797 75.0469 162.656 74.0156 162.656 72.7656C162.656 70.8906 162.781 68.7812 163.031 66.4375C163.281 64.0938 163.562 61.75 163.875 59.4062C164.188 57.0625 164.469 54.8594 164.719 52.7969C164.969 50.7031 165.094 49 165.094 47.6875C165.094 46.5312 164.844 45.6094 164.344 44.9219C163.844 44.2031 163.094 43.8438 162.094 43.8438C161.094 43.8438 160.047 44.2344 158.953 45.0156C157.891 45.7969 156.844 46.8125 155.812 48.0625C154.812 49.2812 153.859 50.6562 152.953 52.1875C152.078 53.7188 151.312 55.2344 150.656 56.7344C150.656 60.0156 150.625 62.8906 150.562 65.3594C150.5 67.7969 150.406 69.8594 150.281 71.5469C150.188 73.2344 150.047 74.5781 149.859 75.5781C149.672 76.5469 149.469 77.2031 149.25 77.5469C149.094 77.7656 148.828 77.9688 148.453 78.1562C148.078 78.3438 147.656 78.5 147.188 78.625C146.75 78.75 146.312 78.8438 145.875 78.9062C145.469 78.9688 145.156 79 144.938 79C144.438 79 144 78.8594 143.625 78.5781C143.281 78.2656 143.109 77.6719 143.109 76.7969C143.109 76.3906 143.141 75.8438 143.203 75.1562C143.297 74.4688 143.406 73.7031 143.531 72.8594C143.656 72.0156 143.797 71.1094 143.953 70.1406C144.109 69.1719 144.266 68.1875 144.422 67.1875C144.453 66.25 144.484 65.2031 144.516 64.0469C144.547 62.8906 144.578 61.75 144.609 60.625C144.641 59.4688 144.656 58.375 144.656 57.3438C144.688 56.2812 144.703 55.375 144.703 54.625C144.703 53.0312 144.656 51.5781 144.562 50.2656C144.469 48.9531 144.281 47.8281 144 46.8906C143.75 45.9531 143.391 45.2344 142.922 44.7344C142.453 44.2031 141.844 43.9375 141.094 43.9375ZM186.703 54.0625C186.734 57.6562 186.969 60.8594 187.406 63.6719C187.844 66.4531 188.453 68.8125 189.234 70.75C190.016 72.6562 190.969 74.1094 192.094 75.1094C193.219 76.1094 194.5 76.6094 195.938 76.6094C197.906 76.6094 199.531 75.8281 200.812 74.2656C202.125 72.6719 203.094 70.5 203.719 67.75C202.094 67.4062 200.547 66.7656 199.078 65.8281C197.609 64.8906 196.312 63.7344 195.188 62.3594C194.062 60.9531 193.156 59.3438 192.469 57.5312C191.812 55.7188 191.484 53.75 191.484 51.625C191.484 49.875 191.703 48.3438 192.141 47.0312C192.609 45.6875 193.219 44.5781 193.969 43.7031C194.719 42.7969 195.578 42.125 196.547 41.6875C197.547 41.2188 198.594 40.9844 199.688 40.9844C200.969 40.9844 202.281 41.3594 203.625 42.1094C204.969 42.8281 206.188 43.9219 207.281 45.3906C208.375 46.8281 209.266 48.6406 209.953 50.8281C210.641 53.0156 210.984 55.5625 210.984 58.4688C210.984 59.5625 210.922 60.6406 210.797 61.7031C210.672 62.7656 210.484 63.7969 210.234 64.7969C211.734 64.3594 213.094 63.6562 214.312 62.6875C215.562 61.7188 216.594 60.4375 217.406 58.8438L217.922 57.8594L219.844 59.3125L219.328 60.2969C218.266 62.4219 216.844 64.125 215.062 65.4062C213.312 66.6562 211.406 67.4688 209.344 67.8438C208.781 69.4375 208.047 70.9219 207.141 72.2969C206.266 73.6406 205.25 74.8125 204.094 75.8125C202.969 76.8125 201.688 77.5938 200.25 78.1562C198.844 78.7188 197.312 79 195.656 79C193.312 79 191.156 78.5 189.188 77.5C187.25 76.5 185.562 74.875 184.125 72.625C182.719 70.375 181.609 67.4219 180.797 63.7656C180.016 60.0781 179.625 55.5625 179.625 50.2188C179.625 42.7812 179.969 36.4531 180.656 31.2344C181.344 25.9844 182.25 21.7188 183.375 18.4375C184.5 15.125 185.797 12.7188 187.266 11.2188C188.734 9.6875 190.25 8.92188 191.812 8.92188C192.781 8.92188 193.578 9.3125 194.203 10.0938C194.828 10.8438 195.141 12.2188 195.141 14.2188C195.141 15.7812 195.016 17.5625 194.766 19.5625C194.516 21.5625 194.188 23.7031 193.781 25.9844C193.375 28.2656 192.891 30.6406 192.328 33.1094C191.766 35.5469 191.172 37.9844 190.547 40.4219C189.922 42.8281 189.281 45.2031 188.625 47.5469C187.969 49.8594 187.328 52.0312 186.703 54.0625ZM194.578 51.25C194.578 53.0938 194.828 54.7969 195.328 56.3594C195.859 57.8906 196.562 59.25 197.438 60.4375C198.312 61.5938 199.328 62.5625 200.484 63.3438C201.641 64.125 202.875 64.6719 204.188 64.9844C204.344 64.1094 204.438 63.2031 204.469 62.2656C204.531 61.2969 204.562 60.3125 204.562 59.3125C204.562 57.0938 204.391 55.0938 204.047 53.3125C203.703 51.5 203.25 49.9688 202.688 48.7188C202.125 47.4375 201.469 46.4531 200.719 45.7656C199.969 45.0781 199.203 44.7344 198.422 44.7344C197.359 44.7344 196.453 45.3125 195.703 46.4688C194.953 47.5938 194.578 49.1875 194.578 51.25ZM192.094 15.3438C192.094 14.6875 192.016 14.1719 191.859 13.7969C191.703 13.4219 191.453 13.2344 191.109 13.2344C190.766 13.2344 190.422 13.7188 190.078 14.6875C189.734 15.6562 189.391 16.9688 189.047 18.625C188.734 20.2812 188.438 22.2031 188.156 24.3906C187.906 26.5781 187.672 28.9062 187.453 31.375C187.234 33.8125 187.062 36.3125 186.938 38.875C186.812 41.4375 186.734 43.9062 186.703 46.2812C187.453 43.5312 188.156 40.7188 188.812 37.8438C189.469 34.9375 190.031 32.125 190.5 29.4062C191 26.6875 191.391 24.125 191.672 21.7188C191.953 19.2812 192.094 17.1562 192.094 15.3438ZM272.672 60.2969C272.016 61.5781 271.25 62.7969 270.375 63.9531C269.531 65.0781 268.641 66.125 267.703 67.0938C266.766 68.0312 265.828 68.9062 264.891 69.7188C263.953 70.5 263.094 71.1875 262.312 71.7812V77.1719C262.312 81.2656 261.984 84.9062 261.328 88.0938C260.703 91.2812 259.781 93.9844 258.562 96.2031C257.375 98.4219 255.938 100.109 254.25 101.266C252.594 102.422 250.734 103 248.672 103C247.547 103 246.516 102.766 245.578 102.297C244.641 101.859 243.828 101.25 243.141 100.469C242.484 99.6875 241.969 98.7656 241.594 97.7031C241.219 96.6719 241.031 95.5625 241.031 94.375C241.031 92.0938 241.406 89.9844 242.156 88.0469C242.938 86.1406 243.984 84.3281 245.297 82.6094C246.609 80.9219 248.125 79.3125 249.844 77.7812C251.562 76.2188 253.391 74.6719 255.328 73.1406C255.359 71.4219 255.406 69.7188 255.469 68.0312C255.562 66.3438 255.641 64.75 255.703 63.25C255.797 61.75 255.875 60.3906 255.938 59.1719C256.031 57.9531 256.109 56.9531 256.172 56.1719C255.109 58.3281 253.906 60.4531 252.562 62.5469C251.25 64.6094 249.844 66.5781 248.344 68.4531C246.844 70.3281 245.266 72.0625 243.609 73.6562C241.984 75.2188 240.344 76.5781 238.688 77.7344C237.031 78.8906 235.375 79.7812 233.719 80.4062C232.094 81.0625 230.531 81.3906 229.031 81.3906C227.344 81.3906 225.734 81.0469 224.203 80.3594C222.703 79.7031 221.375 78.6562 220.219 77.2188C219.094 75.7812 218.203 73.9375 217.547 71.6875C216.859 69.4375 216.516 66.75 216.516 63.625C216.516 60.125 216.906 56.5312 217.688 52.8438C218.469 49.1562 219.547 45.5 220.922 41.875C222.297 38.25 223.938 34.7031 225.844 31.2344C227.75 27.7656 229.828 24.5 232.078 21.4375C234.328 18.3438 236.719 15.5156 239.25 12.9531C241.781 10.3594 244.359 8.125 246.984 6.25C249.609 4.375 252.234 2.92188 254.859 1.89062C257.516 0.828125 260.094 0.296875 262.594 0.296875C265.219 0.296875 267.312 0.96875 268.875 2.3125C270.469 3.625 271.266 5.5 271.266 7.9375C271.266 9.25 270.984 10.5312 270.422 11.7812C269.891 13 269.156 14.1875 268.219 15.3438C267.312 16.4688 266.281 17.5469 265.125 18.5781C263.969 19.5781 262.781 20.5 261.562 21.3438C260.375 22.1875 259.188 22.9375 258 23.5938C256.844 24.25 255.812 24.7969 254.906 25.2344L253.5 23.3125C254.688 22.7188 255.984 21.875 257.391 20.7812C258.797 19.6875 260.109 18.4531 261.328 17.0781C262.547 15.7031 263.562 14.2188 264.375 12.625C265.188 11.0312 265.594 9.4375 265.594 7.84375C265.594 6.5 265.234 5.39063 264.516 4.51562C263.828 3.60938 262.719 3.15625 261.188 3.15625C258.812 3.15625 256.266 3.89063 253.547 5.35938C250.859 6.82812 248.172 8.875 245.484 11.5C242.828 14.125 240.281 17.2656 237.844 20.9219C235.406 24.5469 233.25 28.5312 231.375 32.875C229.5 37.2188 228 41.8281 226.875 46.7031C225.75 51.5781 225.188 56.5781 225.188 61.7031C225.188 63.9531 225.344 65.9688 225.656 67.75C226 69.5312 226.469 71.0469 227.062 72.2969C227.688 73.5156 228.438 74.4688 229.312 75.1562C230.219 75.8125 231.234 76.1406 232.359 76.1406C233.734 76.1406 235.234 75.7188 236.859 74.875C238.484 74.0312 240.109 72.8906 241.734 71.4531C243.391 70.0156 245.016 68.3594 246.609 66.4844C248.203 64.5781 249.672 62.5781 251.016 60.4844C252.359 58.3906 253.531 56.2656 254.531 54.1094C255.531 51.9531 256.266 49.9062 256.734 47.9688C256.922 45.6875 257.109 43.6094 257.297 41.7344C257.484 39.8281 257.656 38.1562 257.812 36.7188C258 35.2812 258.172 34.125 258.328 33.25C258.484 32.3438 258.625 31.75 258.75 31.4688C259 31 259.359 30.5312 259.828 30.0625C260.297 29.5938 260.797 29.1875 261.328 28.8438C261.891 28.4688 262.438 28.1719 262.969 27.9531C263.5 27.7344 263.953 27.625 264.328 27.625C264.828 27.625 265.156 27.8281 265.312 28.2344C265.5 28.6406 265.594 29.0781 265.594 29.5469C265.594 30.9219 265.359 32.75 264.891 35.0312C264.422 37.3125 263.828 39.9688 263.109 43C262.797 44.3125 262.562 46.0469 262.406 48.2031C262.281 50.3281 262.188 52.6094 262.125 55.0469C262.094 57.4531 262.078 59.8906 262.078 62.3594C262.078 64.7969 262.062 66.9844 262.031 68.9219C264.344 67.2344 266.188 65.5 267.562 63.7188C268.969 61.9062 270.031 60.2812 270.75 58.8438L271.266 57.8594L273.188 59.3125L272.672 60.2969ZM255.234 76.6094C253.766 77.7656 252.422 78.9844 251.203 80.2656C249.984 81.5469 248.938 82.9219 248.062 84.3906C247.219 85.8594 246.547 87.4531 246.047 89.1719C245.578 90.9219 245.344 92.8125 245.344 94.8438C245.344 96.7812 245.656 98.2188 246.281 99.1562C246.906 100.125 247.703 100.609 248.672 100.609C249.641 100.609 250.516 100.188 251.297 99.3438C252.109 98.5312 252.797 97.1719 253.359 95.2656C253.953 93.3906 254.406 90.9219 254.719 87.8594C255.062 84.7969 255.234 81.0469 255.234 76.6094ZM270.844 58.8438L271.312 57.8594C271.781 56.9219 272.203 55.9531 272.578 54.9531C272.984 53.9531 273.328 53.0156 273.609 52.1406C273.891 51.2344 274.109 50.4375 274.266 49.75C274.422 49.0312 274.531 48.4844 274.594 48.1094C273.781 48.0156 273 47.8125 272.25 47.5C271.5 47.1875 270.844 46.7656 270.281 46.2344C269.719 45.7031 269.281 45.0781 268.969 44.3594C268.625 43.6406 268.453 42.8281 268.453 41.9219C268.453 41.2031 268.578 40.5625 268.828 40C269.078 39.4375 269.422 38.9688 269.859 38.5938C270.266 38.2188 270.734 37.9375 271.266 37.75C271.766 37.5312 272.297 37.4219 272.859 37.4219C273.609 37.4219 274.266 37.5781 274.828 37.8906C275.391 38.2031 275.859 38.625 276.234 39.1562C276.609 39.6562 276.891 40.25 277.078 40.9375C277.266 41.5938 277.359 42.2812 277.359 43C278.234 43 279.172 42.875 280.172 42.625C281.203 42.375 282.234 42.1094 283.266 41.8281C284.297 41.5156 285.312 41.2344 286.312 40.9844C287.312 40.7344 288.234 40.6094 289.078 40.6094C289.797 40.6094 290.375 40.7656 290.812 41.0781C291.25 41.3594 291.469 41.8438 291.469 42.5312C291.469 43.0312 291.312 43.8594 291 45.0156C290.719 46.1719 290.359 47.5156 289.922 49.0469C289.484 50.5781 289 52.25 288.469 54.0625C287.969 55.8438 287.5 57.6562 287.062 59.5C286.625 61.3125 286.25 63.0781 285.938 64.7969C285.656 66.5156 285.516 68.0469 285.516 69.3906C285.516 71.0781 285.703 72.2188 286.078 72.8125C286.453 73.4062 287.125 73.7031 288.094 73.7031C288.5 73.7031 289 73.5312 289.594 73.1875C290.219 72.8125 290.969 72.1094 291.844 71.0781C292.719 70.0156 293.75 68.5156 294.938 66.5781C296.156 64.6094 297.562 62.0312 299.156 58.8438L299.625 57.8594L301.547 59.3125L301.078 60.2969C299.203 64.0469 297.531 67.125 296.062 69.5312C294.594 71.9375 293.234 73.8438 291.984 75.25C290.766 76.6562 289.609 77.6406 288.516 78.2031C287.422 78.7344 286.328 79 285.234 79C283.391 79 281.891 78.2969 280.734 76.8906C279.578 75.4844 279 73.3125 279 70.375C279 68.7812 279.219 67.125 279.656 65.4062C280.094 63.6875 280.641 61.9844 281.297 60.2969C281.953 58.5781 282.688 56.8906 283.5 55.2344C284.312 53.5781 285.078 52.0156 285.797 50.5469C286.547 49.0469 287.219 47.6562 287.812 46.375C288.406 45.0938 288.828 43.9688 289.078 43L288.797 42.7188C288.297 42.7188 287.625 42.9844 286.781 43.5156C285.938 44.0469 284.984 44.6562 283.922 45.3438C282.891 46 281.781 46.625 280.594 47.2188C279.406 47.8125 278.203 48.1719 276.984 48.2969C276.922 48.7344 276.781 49.375 276.562 50.2188C276.375 51.0625 276.109 52 275.766 53.0312C275.422 54.0625 275.031 55.125 274.594 56.2188C274.156 57.3125 273.703 58.3438 273.234 59.3125L272.766 60.2969L270.844 58.8438ZM273.141 40.0469C272.859 40.0469 272.625 40.1406 272.438 40.3281C272.25 40.5156 272.156 40.7344 272.156 40.9844C272.156 41.3594 272.25 41.6875 272.438 41.9688C272.625 42.2188 272.859 42.4375 273.141 42.625C273.422 42.7812 273.703 42.9062 273.984 43C274.297 43.0625 274.562 43.0938 274.781 43.0938C274.781 42.2188 274.641 41.5 274.359 40.9375C274.078 40.3438 273.672 40.0469 273.141 40.0469ZM328.031 67.375C328.031 69.1562 328.188 70.6562 328.5 71.875C328.812 73.0938 329.359 73.7031 330.141 73.7031C330.609 73.7031 331.109 73.4844 331.641 73.0469C332.203 72.5781 332.844 71.8281 333.562 70.7969C334.281 69.7656 335.094 68.4375 336 66.8125C336.938 65.1562 338 63.1406 339.188 60.7656L340.594 57.8594L342.516 59.3125L341.109 62.2188C339.797 64.8438 338.562 67.2031 337.406 69.2969C336.281 71.3594 335.203 73.1094 334.172 74.5469C333.141 75.9844 332.125 77.0938 331.125 77.875C330.156 78.625 329.188 79 328.219 79C327.188 79 326.312 78.7188 325.594 78.1562C324.906 77.5938 324.328 76.8281 323.859 75.8594C323.391 74.8594 323.031 73.7188 322.781 72.4375C322.531 71.125 322.359 69.7344 322.266 68.2656C321.516 69.7656 320.688 71.1719 319.781 72.4844C318.875 73.7656 317.922 74.8906 316.922 75.8594C315.953 76.8281 314.938 77.5938 313.875 78.1562C312.812 78.7188 311.75 79 310.688 79C309.125 79 307.609 78.6719 306.141 78.0156C304.672 77.3594 303.359 76.3594 302.203 75.0156C301.078 73.6719 300.172 71.9844 299.484 69.9531C298.797 67.8906 298.453 65.4688 298.453 62.6875C298.453 59.4375 298.875 56.4688 299.719 53.7812C300.562 51.0625 301.703 48.7344 303.141 46.7969C304.578 44.8281 306.234 43.3125 308.109 42.25C309.984 41.1562 311.953 40.6094 314.016 40.6094C315.266 40.6094 316.422 40.8906 317.484 41.4531C318.547 42.0156 319.469 42.7031 320.25 43.5156C321.062 44.2969 321.734 45.1406 322.266 46.0469C322.797 46.9219 323.156 47.6719 323.344 48.2969L323.906 43.75C323.969 43.1562 324.25 42.6562 324.75 42.25C325.281 41.8438 325.859 41.5312 326.484 41.3125C327.109 41.0625 327.719 40.8906 328.312 40.7969C328.906 40.6719 329.328 40.6094 329.578 40.6094C329.953 40.6094 330.203 40.6719 330.328 40.7969C330.453 40.9219 330.516 41.1719 330.516 41.5469C330.516 42.0156 330.375 42.9688 330.094 44.4062C329.844 45.8125 329.562 47.625 329.25 49.8438C328.969 52.0312 328.688 54.6094 328.406 57.5781C328.156 60.5469 328.031 63.8125 328.031 67.375ZM322.875 55C322.875 53.5625 322.656 52.1562 322.219 50.7812C321.781 49.375 321.188 48.1406 320.438 47.0781C319.688 45.9844 318.812 45.1094 317.812 44.4531C316.844 43.7969 315.812 43.4688 314.719 43.4688C313.375 43.4688 312.109 43.8594 310.922 44.6406C309.766 45.3906 308.75 46.4688 307.875 47.875C307.031 49.25 306.359 50.9219 305.859 52.8906C305.359 54.8281 305.109 56.9688 305.109 59.3125C305.109 64 305.844 67.5781 307.312 70.0469C308.781 72.4844 310.734 73.7031 313.172 73.7031C314.234 73.7031 315.328 73.2812 316.453 72.4375C317.609 71.5625 318.656 70.3281 319.594 68.7344C320.562 67.1094 321.344 65.1406 321.938 62.8281C322.562 60.5156 322.875 57.9062 322.875 55ZM355.875 43.9375C354.969 43.9375 354.094 44.2656 353.25 44.9219C352.438 45.5469 351.656 46.4219 350.906 47.5469C350.156 48.6406 349.422 49.9375 348.703 51.4375C348.016 52.9062 347.328 54.4844 346.641 56.1719V56.7344C346.547 59.4844 346.453 62.4062 346.359 65.5C346.297 68.5938 346.266 71.9688 346.266 75.625C346.266 76.25 346.047 76.7812 345.609 77.2188C345.203 77.625 344.719 77.9688 344.156 78.25C343.594 78.5 343.016 78.6875 342.422 78.8125C341.828 78.9375 341.344 79 340.969 79C340.5 79 340.062 78.8594 339.656 78.5781C339.25 78.2969 339.047 77.6719 339.047 76.7031C339.047 76.2344 339.094 75.6562 339.188 74.9688C339.281 74.25 339.406 73.4844 339.562 72.6719C339.688 71.8594 339.844 71.0312 340.031 70.1875C340.188 69.3125 340.344 68.5 340.5 67.75C340.5 65.0938 340.5 62.7031 340.5 60.5781C340.469 58.4531 340.453 56.5625 340.453 54.9062C340.453 53.25 340.453 51.7969 340.453 50.5469C340.422 49.2969 340.406 48.2188 340.406 47.3125C340.406 45.8125 340.438 44.7188 340.5 44.0312C340.531 43.3125 340.594 42.8125 340.688 42.5312C340.844 42.0938 341.125 41.75 341.531 41.5C341.969 41.25 342.422 41.0625 342.891 40.9375C343.359 40.7812 343.828 40.6875 344.297 40.6562C344.766 40.625 345.125 40.6094 345.375 40.6094C345.969 40.6094 346.359 40.7812 346.547 41.125C346.734 41.4688 346.828 42 346.828 42.7188C346.828 44.3438 346.828 45.8125 346.828 47.125C346.828 48.4375 346.797 49.75 346.734 51.0625C347.328 49.6562 348.016 48.3281 348.797 47.0781C349.609 45.7969 350.5 44.6875 351.469 43.75C352.438 42.7812 353.453 42.0156 354.516 41.4531C355.609 40.8906 356.734 40.6094 357.891 40.6094C359.297 40.6094 360.453 40.9062 361.359 41.5C362.297 42.0625 363.031 42.8594 363.562 43.8906C364.125 44.9219 364.531 46.1406 364.781 47.5469C365.062 48.9219 365.25 50.4219 365.344 52.0469C366.219 50.4531 367.156 48.9688 368.156 47.5938C369.188 46.1875 370.266 44.9688 371.391 43.9375C372.547 42.9062 373.75 42.0938 375 41.5C376.281 40.9062 377.609 40.6094 378.984 40.6094C381.359 40.6094 383.094 41.3594 384.188 42.8594C385.281 44.3281 385.828 46.3281 385.828 48.8594C385.828 50.4531 385.703 52.2344 385.453 54.2031C385.203 56.1719 384.938 58.1719 384.656 60.2031C384.375 62.2031 384.109 64.1719 383.859 66.1094C383.609 68.0469 383.484 69.8125 383.484 71.4062C383.484 73.3438 383.969 74.3125 384.938 74.3125C385.438 74.3125 385.984 74.0156 386.578 73.4219C387.172 72.7969 387.844 71.8594 388.594 70.6094C389.375 69.3281 390.266 67.7188 391.266 65.7812C392.297 63.8438 393.484 61.5312 394.828 58.8438L395.297 57.8594L397.219 59.3125L396.75 60.2969C394.906 63.9844 393.328 67.0312 392.016 69.4375C390.734 71.8438 389.578 73.7656 388.547 75.2031C387.516 76.6094 386.531 77.5938 385.594 78.1562C384.688 78.7188 383.672 79 382.547 79C381.891 79 381.25 78.9062 380.625 78.7188C380 78.5312 379.453 78.2031 378.984 77.7344C378.516 77.2656 378.141 76.6406 377.859 75.8594C377.578 75.0469 377.438 74.0156 377.438 72.7656C377.438 70.8906 377.562 68.7812 377.812 66.4375C378.062 64.0938 378.344 61.75 378.656 59.4062C378.969 57.0625 379.25 54.8594 379.5 52.7969C379.75 50.7031 379.875 49 379.875 47.6875C379.875 46.5312 379.625 45.6094 379.125 44.9219C378.625 44.2031 377.875 43.8438 376.875 43.8438C375.875 43.8438 374.828 44.2344 373.734 45.0156C372.672 45.7969 371.625 46.8125 370.594 48.0625C369.594 49.2812 368.641 50.6562 367.734 52.1875C366.859 53.7188 366.094 55.2344 365.438 56.7344C365.438 60.0156 365.406 62.8906 365.344 65.3594C365.281 67.7969 365.188 69.8594 365.062 71.5469C364.969 73.2344 364.828 74.5781 364.641 75.5781C364.453 76.5469 364.25 77.2031 364.031 77.5469C363.875 77.7656 363.609 77.9688 363.234 78.1562C362.859 78.3438 362.438 78.5 361.969 78.625C361.531 78.75 361.094 78.8438 360.656 78.9062C360.25 78.9688 359.938 79 359.719 79C359.219 79 358.781 78.8594 358.406 78.5781C358.062 78.2656 357.891 77.6719 357.891 76.7969C357.891 76.3906 357.922 75.8438 357.984 75.1562C358.078 74.4688 358.188 73.7031 358.312 72.8594C358.438 72.0156 358.578 71.1094 358.734 70.1406C358.891 69.1719 359.047 68.1875 359.203 67.1875C359.234 66.25 359.266 65.2031 359.297 64.0469C359.328 62.8906 359.359 61.75 359.391 60.625C359.422 59.4688 359.438 58.375 359.438 57.3438C359.469 56.2812 359.484 55.375 359.484 54.625C359.484 53.0312 359.438 51.5781 359.344 50.2656C359.25 48.9531 359.062 47.8281 358.781 46.8906C358.531 45.9531 358.172 45.2344 357.703 44.7344C357.234 44.2031 356.625 43.9375 355.875 43.9375Z" fill="url(#paint0_linear)"/>
</g>
<defs>
<filter id="filter0_d" x="0.6875" y="0.296875" width="400.531" height="110.703" filterUnits="userSpaceOnUse" color-interpolation-filters="sRGB">
<feFlood flood-opacity="0" result="BackgroundImageFix"/>
<feColorMatrix in="SourceAlpha" type="matrix" values="0 0 0 0 0 0 0 0 0 0 0 0 0 0 0 0 0 0 127 0"/>
<feOffset dy="4"/>
<feGaussianBlur stdDeviation="2"/>
<feColorMatrix type="matrix" values="0 0 0 0 0 0 0 0 0 0 0 0 0 0 0 0 0 0 0.25 0"/>
<feBlend mode="normal" in2="BackgroundImageFix" result="effect1_dropShadow"/>
<feBlend mode="normal" in="SourceGraphic" in2="effect1_dropShadow" result="shape"/>
</filter>
<linearGradient id="paint0_linear" x1="33.5386" y1="41.3608" x2="385.133" y2="41.3608" gradientUnits="userSpaceOnUse">
<stop offset="0.151042" stop-color="#4DD4F7"/>
<stop offset="0.385417" stop-color="#9090FB"/>
<stop offset="0.598958" stop-color="#FF6B81"/>
<stop offset="0.807292" stop-color="#FBDF63"/>
<stop offset="1" stop-color="#D9F0F4"/>
</linearGradient>
</defs>
</svg>
